<svg xmlns="http://www.w3.org/2000/svg" height="40" viewBox="0 -960 960 960" width="40"><path d="M178.461-280q-24.577 0-41.519-16.942Q120-313.884 120-338.716v-282.568q0-24.832 16.942-41.774T178.461-680h603.078q24.577 0 41.519 16.942Q840-646.116 840-621.284v282.568q0 24.832-16.942 41.774T781.539-280H178.461Zm0-33.846h603.078q9.231 0 16.923-7.692 7.692-7.692 7.692-16.923v-283.078q0-9.231-7.692-16.923-7.692-7.692-16.923-7.692H178.461q-9.231 0-16.923 7.692-7.692 7.692-7.692 16.923v283.078q0 9.231 7.692 16.923 7.692 7.692 16.923 7.692Zm124.616-61.949h33.846v-87.282h87.282v-33.846h-87.282v-87.282h-33.846v87.282h-87.282v33.846h87.282v87.282Zm280.884-5.333q14.526 0 24.872-10.256 10.347-10.255 10.347-25.038t-10.256-25.129q-10.256-10.346-24.782-10.346t-25.129 10.255q-10.603 10.256-10.603 25.039 0 14.783 10.619 25.129 10.619 10.346 24.932 10.346ZM694.73-508.257q14.526 0 24.872-10.255 10.346-10.256 10.346-25.039 0-14.782-10.255-25.129-10.256-10.346-24.782-10.346-14.527 0-25.129 10.256-10.603 10.256-10.603 25.038 0 14.783 10.619 25.129 10.619 10.346 24.932 10.346ZM153.846-313.846v-332.308 332.308Z"/></svg>