<svg xmlns="http://www.w3.org/2000/svg" x="0px" y="0px" width="100" height="100" viewBox="0,0,256,256">
<g transform="translate(-64,-64) scale(1.5,1.5)"><g fill="none" fill-rule="nonzero" stroke="none" stroke-width="1" stroke-linecap="butt" stroke-linejoin="miter" stroke-miterlimit="10" stroke-dasharray="" stroke-dashoffset="0" font-family="none" font-weight="none" font-size="none" text-anchor="none" style="mix-blend-mode: normal"><g transform="scale(2.56,2.56)"><path d="M69,82h-38c-7.18,0 -13,-5.82 -13,-13v-38c0,-7.18 5.82,-13 13,-13h38c7.18,0 13,5.82 13,13v38c0,7.18 -5.82,13 -13,13z" fill="#22d3ee"></path><path d="M30,17c-7.168,0 -13,5.832 -13,13v39c0,7.168 5.832,13 13,13h39c7.168,0 13,-5.832 13,-13v-39c0,-7.168 -5.832,-13 -13,-13zM30,19h39c6.065,0 11,4.935 11,11v39c0,6.065 -4.935,11 -11,11h-39c-6.065,0 -11,-4.935 -11,-11v-39c0,-6.065 4.935,-11 11,-11z" fill="#1f212b"></path><path d="M32.838,22c-5.976,0 -10.838,4.862 -10.838,10.838v33.326c0,5.976 4.862,10.836 10.838,10.836h33.324c5.976,0 10.838,-4.861 10.838,-10.836v-18.662c0,-0.276 -0.224,-0.5 -0.5,-0.5c-0.276,0 -0.5,0.224 -0.5,0.5v18.662c0,5.424 -4.414,9.836 -9.838,9.836h-33.324c-5.424,0 -9.838,-4.412 -9.838,-9.836v-33.326c0,-5.424 4.414,-9.838 9.838,-9.838h33.662c0.276,0 0.5,-0.224 0.5,-0.5c0,-0.276 -0.224,-0.5 -0.5,-0.5zM76.5,37.002c-0.276,0 -0.5,0.224 -0.5,0.5v2c0,0.276 0.224,0.5 0.5,0.5c0.276,0 0.5,-0.224 0.5,-0.5v-2c0,-0.276 -0.224,-0.5 -0.5,-0.5zM76.5,41.002c-0.276,0 -0.5,0.224 -0.5,0.5v4c0,0.276 0.224,0.5 0.5,0.5c0.276,0 0.5,-0.224 0.5,-0.5v-4c0,-0.276 -0.224,-0.5 -0.5,-0.5z" fill="#1f212b"></path><path d="M34.367,36.499c-3.266,0.119 -4.843,2.992 -5.72,5.742c-1.861,5.831 -1.305,12.508 0.419,18.32c1.299,4.379 3.442,7.636 7.154,7.939c1.715,0.14 3.917,-0.622 5.824,-3.051c1.58,-2.012 2.823,-5.129 3.993,-7.642c1.434,-3.079 2.463,-4.999 2.463,-4.999c0,0 -0.261,4.42 1.117,7.546c1.102,2.5 3.138,3.967 5.329,4.146c3.054,0.25 4.757,-1.977 5.617,-3.595c3.795,-7.135 4.682,-9.535 6.596,-12.53c1.141,-1.785 3.565,-4.981 4.73,-7.263c0.968,-1.897 0.585,-3.137 -0.387,-3.912c-0.961,-0.766 -2.757,-1.147 -4.363,-0.357c-3.212,1.58 -5.378,4.332 -7.16,6.024c-0.582,0.553 -2.578,3.098 -2.578,3.098c0,0 0.6,-5.108 -0.176,-7.332c-0.511,-1.466 -1.819,-2.662 -2.733,-2.921c-4.372,-1.239 -7.387,2.267 -9.074,3.988c-1.906,1.945 -5.917,8.468 -5.917,8.468c0,0 0.249,-2.95 0.1,-5.68c-0.174,-3.152 -1.193,-6.137 -5.234,-5.989z" fill="#ffffff"></path><path d="M36.614,69.016c-0.148,0 -0.293,-0.006 -0.435,-0.018c-3.539,-0.288 -6.022,-3.002 -7.592,-8.295c-1.975,-6.658 -2.123,-13.269 -0.417,-18.615c1.275,-3.992 3.296,-5.983 6.179,-6.089c3.645,-0.098 5.504,1.984 5.749,6.462c0.074,1.342 0.053,2.724 0.012,3.796c1.329,-2.082 3.615,-5.544 4.95,-6.906l0.329,-0.34c1.466,-1.518 3.919,-4.059 7.285,-4.059c0.644,0 1.301,0.094 1.953,0.278c1.058,0.3 2.495,1.593 3.069,3.237c0.523,1.502 0.46,4.158 0.346,5.89c0.591,-0.73 1.276,-1.554 1.591,-1.853c0.399,-0.38 0.818,-0.813 1.264,-1.273c1.541,-1.594 3.458,-3.576 6.02,-4.837c1.57,-0.772 3.673,-0.558 4.896,0.414c0.919,0.732 1.755,2.111 0.521,4.53c-0.8,1.567 -2.142,3.498 -3.325,5.202c-0.554,0.797 -1.059,1.524 -1.429,2.104c-1.083,1.693 -1.843,3.216 -2.993,5.52c-0.873,1.748 -1.959,3.924 -3.583,6.976c-1.447,2.72 -3.508,4.073 -6.1,3.858c-2.46,-0.201 -4.608,-1.862 -5.746,-4.441c-0.813,-1.845 -1.077,-4.084 -1.153,-5.687c-0.409,0.819 -0.93,1.889 -1.516,3.147c-0.225,0.483 -0.453,0.989 -0.685,1.505c-0.963,2.139 -2.056,4.563 -3.368,6.234c-2.224,2.837 -4.603,3.26 -5.822,3.26zM34.651,36.994l-0.266,0.005c-2.41,0.088 -4.131,1.852 -5.263,5.394c-1.646,5.157 -1.496,11.559 0.423,18.025c1.438,4.852 3.635,7.332 6.714,7.584c0.116,0.009 0.234,0.014 0.354,0.014c1.038,0 3.072,-0.373 5.036,-2.876c1.237,-1.576 2.257,-3.839 3.243,-6.028c0.234,-0.52 0.463,-1.029 0.69,-1.516c1.423,-3.057 2.465,-5.005 2.475,-5.024c0.111,-0.207 0.35,-0.311 0.577,-0.245c0.226,0.064 0.377,0.276 0.363,0.511c-0.002,0.043 -0.236,4.339 1.075,7.316c0.987,2.238 2.824,3.677 4.913,3.849c2.177,0.177 3.868,-0.951 5.135,-3.331c1.617,-3.041 2.701,-5.211 3.571,-6.954c1.165,-2.332 1.934,-3.873 3.045,-5.611c0.375,-0.587 0.888,-1.326 1.45,-2.135c1.166,-1.678 2.486,-3.58 3.256,-5.087c0.755,-1.479 0.672,-2.556 -0.253,-3.292c-0.93,-0.742 -2.596,-0.906 -3.831,-0.301c-2.405,1.185 -4.255,3.098 -5.742,4.635c-0.457,0.473 -0.885,0.916 -1.294,1.304c-0.456,0.433 -1.98,2.344 -2.529,3.044c-0.14,0.177 -0.379,0.237 -0.584,0.153c-0.207,-0.085 -0.332,-0.298 -0.306,-0.521c0.006,-0.05 0.578,-5.019 -0.151,-7.108c-0.486,-1.395 -1.705,-2.408 -2.397,-2.604c-0.563,-0.16 -1.129,-0.241 -1.681,-0.241c-2.941,0 -5.123,2.259 -6.566,3.754l-0.334,0.344c-1.845,1.884 -5.809,8.315 -5.849,8.38c-0.121,0.198 -0.362,0.288 -0.582,0.213c-0.22,-0.072 -0.361,-0.286 -0.342,-0.517c0.002,-0.029 0.244,-2.949 0.099,-5.61c-0.208,-3.822 -1.58,-5.524 -4.449,-5.524z" fill="#1f212b"></path></g></g></g>
</svg>